<mxfile host="app.diagrams.net" modified="2023-02-27T20:44:49.624Z" agent="5.0 (Windows NT 10.0; Win64; x64) AppleWebKit/537.36 (KHTML, like Gecko) Chrome/110.0.0.0 Safari/537.36 Edg/110.0.1587.56" etag="Yw_tpyXxeHex1S8OalrY" version="20.8.23" type="github">
  <diagram name="Page-1" id="TRCaWQI18scVr7TWzj1z">
    <mxGraphModel dx="1885" dy="569" grid="1" gridSize="10" guides="1" tooltips="1" connect="1" arrows="1" fold="1" page="1" pageScale="1" pageWidth="850" pageHeight="1100" math="0" shadow="0">
      <root>
        <mxCell id="0" />
        <mxCell id="1" parent="0" />
        <mxCell id="MnGRkau2HxLCN7xlnSKG-4" value="" style="edgeStyle=orthogonalEdgeStyle;rounded=0;orthogonalLoop=1;jettySize=auto;html=1;fontSize=20;" edge="1" parent="1" source="MnGRkau2HxLCN7xlnSKG-1">
          <mxGeometry relative="1" as="geometry">
            <mxPoint x="400" y="230" as="targetPoint" />
          </mxGeometry>
        </mxCell>
        <mxCell id="MnGRkau2HxLCN7xlnSKG-1" value="&lt;font style=&quot;font-size: 20px;&quot;&gt;start&lt;/font&gt;" style="strokeWidth=2;html=1;shape=mxgraph.flowchart.terminator;whiteSpace=wrap;" vertex="1" parent="1">
          <mxGeometry x="350" y="130" width="100" height="60" as="geometry" />
        </mxCell>
        <mxCell id="MnGRkau2HxLCN7xlnSKG-7" value="" style="edgeStyle=orthogonalEdgeStyle;rounded=0;orthogonalLoop=1;jettySize=auto;html=1;fontSize=20;" edge="1" parent="1" target="MnGRkau2HxLCN7xlnSKG-6">
          <mxGeometry relative="1" as="geometry">
            <mxPoint x="400" y="290" as="sourcePoint" />
          </mxGeometry>
        </mxCell>
        <mxCell id="MnGRkau2HxLCN7xlnSKG-43" value="" style="edgeStyle=orthogonalEdgeStyle;rounded=0;orthogonalLoop=1;jettySize=auto;html=1;fontSize=13;" edge="1" parent="1" source="MnGRkau2HxLCN7xlnSKG-6" target="MnGRkau2HxLCN7xlnSKG-30">
          <mxGeometry relative="1" as="geometry" />
        </mxCell>
        <mxCell id="MnGRkau2HxLCN7xlnSKG-6" value="declare mean = 0&lt;br&gt;declare sum_of_squares = 0" style="whiteSpace=wrap;html=1;strokeWidth=2;" vertex="1" parent="1">
          <mxGeometry x="340" y="330" width="120" height="60" as="geometry" />
        </mxCell>
        <mxCell id="MnGRkau2HxLCN7xlnSKG-11" value="" style="edgeStyle=orthogonalEdgeStyle;rounded=0;orthogonalLoop=1;jettySize=auto;html=1;fontSize=20;" edge="1" parent="1" source="MnGRkau2HxLCN7xlnSKG-8">
          <mxGeometry relative="1" as="geometry">
            <mxPoint x="400" y="520" as="targetPoint" />
            <Array as="points">
              <mxPoint x="530" y="825" />
              <mxPoint x="530" y="520" />
            </Array>
          </mxGeometry>
        </mxCell>
        <mxCell id="MnGRkau2HxLCN7xlnSKG-52" value="" style="edgeStyle=orthogonalEdgeStyle;rounded=0;orthogonalLoop=1;jettySize=auto;html=1;fontSize=13;" edge="1" parent="1" source="MnGRkau2HxLCN7xlnSKG-8">
          <mxGeometry relative="1" as="geometry">
            <mxPoint x="250" y="825" as="targetPoint" />
          </mxGeometry>
        </mxCell>
        <mxCell id="MnGRkau2HxLCN7xlnSKG-8" value="Last item" style="rhombus;whiteSpace=wrap;html=1;strokeWidth=2;" vertex="1" parent="1">
          <mxGeometry x="340" y="770" width="120" height="110" as="geometry" />
        </mxCell>
        <mxCell id="MnGRkau2HxLCN7xlnSKG-13" value="Stop" style="strokeWidth=2;html=1;shape=mxgraph.flowchart.terminator;whiteSpace=wrap;fontSize=20;" vertex="1" parent="1">
          <mxGeometry x="130" y="888" width="100" height="60" as="geometry" />
        </mxCell>
        <mxCell id="MnGRkau2HxLCN7xlnSKG-18" value="&lt;span style=&quot;font-size: 15px;&quot;&gt;&lt;b&gt;NO&lt;/b&gt;&lt;/span&gt;" style="text;html=1;align=center;verticalAlign=middle;resizable=0;points=[];autosize=1;strokeColor=none;fillColor=none;fontSize=20;" vertex="1" parent="1">
          <mxGeometry x="472" y="790" width="50" height="40" as="geometry" />
        </mxCell>
        <mxCell id="MnGRkau2HxLCN7xlnSKG-44" value="" style="edgeStyle=orthogonalEdgeStyle;rounded=0;orthogonalLoop=1;jettySize=auto;html=1;fontSize=13;" edge="1" parent="1" source="MnGRkau2HxLCN7xlnSKG-30" target="MnGRkau2HxLCN7xlnSKG-39">
          <mxGeometry relative="1" as="geometry" />
        </mxCell>
        <mxCell id="MnGRkau2HxLCN7xlnSKG-30" value="mean = sum of array / array size" style="rounded=0;whiteSpace=wrap;html=1;fontSize=12;" vertex="1" parent="1">
          <mxGeometry x="340" y="430" width="120" height="60" as="geometry" />
        </mxCell>
        <mxCell id="MnGRkau2HxLCN7xlnSKG-53" value="" style="edgeStyle=orthogonalEdgeStyle;rounded=0;orthogonalLoop=1;jettySize=auto;html=1;fontSize=13;" edge="1" parent="1" source="MnGRkau2HxLCN7xlnSKG-32" target="MnGRkau2HxLCN7xlnSKG-13">
          <mxGeometry relative="1" as="geometry" />
        </mxCell>
        <mxCell id="MnGRkau2HxLCN7xlnSKG-32" value="output sum_of_squares" style="shape=parallelogram;html=1;strokeWidth=2;perimeter=parallelogramPerimeter;whiteSpace=wrap;rounded=1;arcSize=12;size=0.23;fontSize=12;" vertex="1" parent="1">
          <mxGeometry x="90" y="795" width="180" height="60" as="geometry" />
        </mxCell>
        <mxCell id="MnGRkau2HxLCN7xlnSKG-38" value="&lt;p style=&quot;font-size: 18px;&quot;&gt;&lt;/p&gt;&lt;span style=&quot;background-color: initial; font-size: 18px;&quot;&gt;declare an array and put numbers in&lt;/span&gt;&lt;br style=&quot;font-size: 18px;&quot;&gt;&lt;span style=&quot;background-color: initial; font-size: 18px;&quot;&gt;declare mean&lt;br style=&quot;font-size: 18px;&quot;&gt;declare variable sum_of_square&lt;br style=&quot;font-size: 18px;&quot;&gt;&lt;br style=&quot;font-size: 18px;&quot;&gt;mean = sum of array / array size&lt;br style=&quot;font-size: 18px;&quot;&gt;&lt;/span&gt;&lt;br style=&quot;font-size: 18px;&quot;&gt;&lt;span style=&quot;background-color: initial; font-size: 18px;&quot;&gt;for each element in array&lt;span style=&quot;white-space: pre; font-size: 18px;&quot;&gt;	&lt;br style=&quot;font-size: 18px;&quot;&gt;&lt;/span&gt;&lt;span style=&quot;white-space: pre; font-size: 18px;&quot;&gt;	&lt;/span&gt;set deviation&amp;nbsp; = element - mean&lt;br style=&quot;font-size: 18px;&quot;&gt;&lt;span style=&quot;white-space: pre; font-size: 18px;&quot;&gt;	&lt;/span&gt;sum_of_square = sum_of_squares + (diviation * diviation)&lt;br style=&quot;font-size: 18px;&quot;&gt;end for loop&lt;br style=&quot;font-size: 18px;&quot;&gt;&lt;br style=&quot;font-size: 18px;&quot;&gt;&lt;/span&gt;&lt;span style=&quot;background-color: initial; font-size: 18px;&quot;&gt;Output the sum_of_numbers&lt;/span&gt;&lt;br style=&quot;font-size: 18px;&quot;&gt;&lt;p style=&quot;font-size: 18px;&quot;&gt;&lt;/p&gt;" style="text;html=1;strokeColor=none;fillColor=none;spacing=5;spacingTop=-20;whiteSpace=wrap;overflow=hidden;rounded=0;fontSize=18;" vertex="1" parent="1">
          <mxGeometry x="-200" y="210" width="520" height="290" as="geometry" />
        </mxCell>
        <mxCell id="MnGRkau2HxLCN7xlnSKG-47" value="" style="edgeStyle=orthogonalEdgeStyle;rounded=0;orthogonalLoop=1;jettySize=auto;html=1;fontSize=13;" edge="1" parent="1" source="MnGRkau2HxLCN7xlnSKG-39" target="MnGRkau2HxLCN7xlnSKG-40">
          <mxGeometry relative="1" as="geometry" />
        </mxCell>
        <mxCell id="MnGRkau2HxLCN7xlnSKG-39" value="set diviation = element - mean" style="rounded=0;whiteSpace=wrap;html=1;fontSize=13;" vertex="1" parent="1">
          <mxGeometry x="330" y="550" width="140" height="60" as="geometry" />
        </mxCell>
        <mxCell id="MnGRkau2HxLCN7xlnSKG-58" value="" style="edgeStyle=orthogonalEdgeStyle;rounded=0;orthogonalLoop=1;jettySize=auto;html=1;fontSize=18;" edge="1" parent="1" source="MnGRkau2HxLCN7xlnSKG-40" target="MnGRkau2HxLCN7xlnSKG-8">
          <mxGeometry relative="1" as="geometry" />
        </mxCell>
        <mxCell id="MnGRkau2HxLCN7xlnSKG-40" value="sum_of_square = sum_of_squares + (diviation * diviation)" style="rounded=0;whiteSpace=wrap;html=1;fontSize=13;" vertex="1" parent="1">
          <mxGeometry x="330" y="660" width="140" height="60" as="geometry" />
        </mxCell>
        <mxCell id="MnGRkau2HxLCN7xlnSKG-16" value="&lt;font style=&quot;font-size: 15px;&quot;&gt;&lt;b&gt;YES&lt;/b&gt;&lt;/font&gt;" style="text;html=1;align=center;verticalAlign=middle;resizable=0;points=[];autosize=1;strokeColor=none;fillColor=none;fontSize=20;" vertex="1" parent="1">
          <mxGeometry x="270" y="790" width="50" height="40" as="geometry" />
        </mxCell>
        <mxCell id="MnGRkau2HxLCN7xlnSKG-57" value="input array" style="shape=parallelogram;html=1;strokeWidth=2;perimeter=parallelogramPerimeter;whiteSpace=wrap;rounded=1;arcSize=12;size=0.23;fontSize=13;" vertex="1" parent="1">
          <mxGeometry x="330" y="230" width="140" height="60" as="geometry" />
        </mxCell>
        <mxCell id="MnGRkau2HxLCN7xlnSKG-59" value="PSEUDOCODE" style="text;html=1;strokeColor=none;fillColor=none;align=center;verticalAlign=middle;whiteSpace=wrap;rounded=0;fontSize=25;fontStyle=1" vertex="1" parent="1">
          <mxGeometry x="-140" y="170" width="60" height="30" as="geometry" />
        </mxCell>
      </root>
    </mxGraphModel>
  </diagram>
</mxfile>
